<svg width="14" height="14" viewBox="0 0 14 14" fill="none" xmlns="http://www.w3.org/2000/svg">
<g clip-path="url(#clip0_962_22737)">
<mask id="mask0_962_22737" style="mask-type:luminance" maskUnits="userSpaceOnUse" x="0" y="0" width="14" height="14">
<path d="M6.99907 13.9903C10.8602 13.9903 13.9903 10.8602 13.9903 6.99907C13.9903 3.13791 10.8602 0.0078125 6.99907 0.0078125C3.13791 0.0078125 0.0078125 3.13791 0.0078125 6.99907C0.0078125 10.8602 3.13791 13.9903 6.99907 13.9903Z" fill="white"/>
</mask>
<g mask="url(#mask0_962_22737)">
<path d="M1.11719 0.0078125V8.588H4.24657L6.99859 3.82123H13.9898V0.0078125H1.11719Z" fill="#DB4437"/>
<path d="M1.11719 0.0078125V8.588H4.24657L6.99859 3.82123H13.9898V0.0078125H1.11719Z" fill="url(#paint0_linear_962_22737)"/>
</g>
<mask id="mask1_962_22737" style="mask-type:luminance" maskUnits="userSpaceOnUse" x="0" y="0" width="14" height="14">
<path d="M6.99907 13.9903C10.8602 13.9903 13.9903 10.8602 13.9903 6.99907C13.9903 3.13791 10.8602 0.0078125 6.99907 0.0078125C3.13791 0.0078125 0.0078125 3.13791 0.0078125 6.99907C0.0078125 10.8602 3.13791 13.9903 6.99907 13.9903Z" fill="white"/>
</mask>
<g mask="url(#mask1_962_22737)">
<path d="M4.3237 8.55978L1.15936 3.13281L1.11328 3.21226L4.25458 8.59871L4.3237 8.55978Z" fill="#3E2723" fill-opacity="0.15"/>
</g>
<mask id="mask2_962_22737" style="mask-type:luminance" maskUnits="userSpaceOnUse" x="0" y="0" width="14" height="14">
<path d="M6.99907 13.9903C10.8602 13.9903 13.9903 10.8602 13.9903 6.99907C13.9903 3.13791 10.8602 0.0078125 6.99907 0.0078125C3.13791 0.0078125 0.0078125 3.13791 0.0078125 6.99907C0.0078125 10.8602 3.13791 13.9903 6.99907 13.9903Z" fill="white"/>
</mask>
<g mask="url(#mask2_962_22737)">
<path d="M0.0078125 13.9897H6.66302L9.75188 10.9008V8.58732H4.24706L0.0078125 1.31641V13.9897Z" fill="#0F9D58"/>
<path d="M0.0078125 13.9897H6.66302L9.75188 10.9008V8.58732H4.24706L0.0078125 1.31641V13.9897Z" fill="url(#paint1_linear_962_22737)"/>
</g>
<mask id="mask3_962_22737" style="mask-type:luminance" maskUnits="userSpaceOnUse" x="0" y="0" width="14" height="14">
<path d="M6.99907 13.9903C10.8602 13.9903 13.9903 10.8602 13.9903 6.99907C13.9903 3.13791 10.8602 0.0078125 6.99907 0.0078125C3.13791 0.0078125 0.0078125 3.13791 0.0078125 6.99907C0.0078125 10.8602 3.13791 13.9903 6.99907 13.9903Z" fill="white"/>
</mask>
<g mask="url(#mask3_962_22737)">
<path d="M9.68619 8.69438L9.62025 8.65625L6.57031 13.9911H6.66168L9.68857 8.69677L9.68619 8.69438Z" fill="#263238" fill-opacity="0.15"/>
</g>
<mask id="mask4_962_22737" style="mask-type:luminance" maskUnits="userSpaceOnUse" x="0" y="0" width="14" height="14">
<path d="M6.99907 13.9903C10.8602 13.9903 13.9903 10.8602 13.9903 6.99907C13.9903 3.13791 10.8602 0.0078125 6.99907 0.0078125C3.13791 0.0078125 0.0078125 3.13791 0.0078125 6.99907C0.0078125 10.8602 3.13791 13.9903 6.99907 13.9903Z" fill="white"/>
</mask>
<g mask="url(#mask4_962_22737)">
<mask id="mask5_962_22737" style="mask-type:luminance" maskUnits="userSpaceOnUse" x="0" y="1" width="10" height="13">
<path d="M0.0078125 13.9897H6.66302L9.75188 10.9008V8.58732H4.24706L0.0078125 1.31641V13.9897Z" fill="white"/>
</mask>
<g mask="url(#mask5_962_22737)">
<path d="M7.00012 3.82031L9.75293 8.58708L6.66406 13.9894H13.9914V3.82031H7.00012Z" fill="#FFCD40"/>
<path d="M7.00012 3.82031L9.75293 8.58708L6.66406 13.9894H13.9914V3.82031H7.00012Z" fill="url(#paint2_linear_962_22737)"/>
</g>
</g>
<mask id="mask6_962_22737" style="mask-type:luminance" maskUnits="userSpaceOnUse" x="0" y="0" width="14" height="14">
<path d="M6.99907 13.9903C10.8602 13.9903 13.9903 10.8602 13.9903 6.99907C13.9903 3.13791 10.8602 0.0078125 6.99907 0.0078125C3.13791 0.0078125 0.0078125 3.13791 0.0078125 6.99907C0.0078125 10.8602 3.13791 13.9903 6.99907 13.9903Z" fill="white"/>
</mask>
<g mask="url(#mask6_962_22737)">
<path d="M7.00012 3.82031L9.75293 8.58708L6.66406 13.9894H13.9914V3.82031H7.00012Z" fill="#FFCD40"/>
<path d="M7.00012 3.82031L9.75293 8.58708L6.66406 13.9894H13.9914V3.82031H7.00012Z" fill="url(#paint3_linear_962_22737)"/>
</g>
<mask id="mask7_962_22737" style="mask-type:luminance" maskUnits="userSpaceOnUse" x="0" y="0" width="14" height="14">
<path d="M6.99907 13.9903C10.8602 13.9903 13.9903 10.8602 13.9903 6.99907C13.9903 3.13791 10.8602 0.0078125 6.99907 0.0078125C3.13791 0.0078125 0.0078125 3.13791 0.0078125 6.99907C0.0078125 10.8602 3.13791 13.9903 6.99907 13.9903Z" fill="white"/>
</mask>
<g mask="url(#mask7_962_22737)">
<mask id="mask8_962_22737" style="mask-type:luminance" maskUnits="userSpaceOnUse" x="6" y="3" width="8" height="11">
<path d="M7.00012 3.82031L9.75293 8.58708L6.66406 13.9894H13.9914V3.82031H7.00012Z" fill="white"/>
</mask>
<g mask="url(#mask8_962_22737)">
<path d="M1.11719 0.0078125V8.588H4.24657L6.99859 3.82123H13.9898V0.0078125H1.11719Z" fill="#DB4437"/>
<path d="M1.11719 0.0078125V8.588H4.24657L6.99859 3.82123H13.9898V0.0078125H1.11719Z" fill="url(#paint4_linear_962_22737)"/>
</g>
</g>
<mask id="mask9_962_22737" style="mask-type:luminance" maskUnits="userSpaceOnUse" x="0" y="0" width="14" height="14">
<path d="M6.99907 13.9903C10.8602 13.9903 13.9903 10.8602 13.9903 6.99907C13.9903 3.13791 10.8602 0.0078125 6.99907 0.0078125C3.13791 0.0078125 0.0078125 3.13791 0.0078125 6.99907C0.0078125 10.8602 3.13791 13.9903 6.99907 13.9903Z" fill="white"/>
</mask>
<g mask="url(#mask9_962_22737)">
<path d="M7 3.82031V5.48471L13.2286 3.82031H7Z" fill="url(#paint5_radial_962_22737)"/>
</g>
<mask id="mask10_962_22737" style="mask-type:luminance" maskUnits="userSpaceOnUse" x="0" y="0" width="14" height="14">
<path d="M6.99907 13.9903C10.8602 13.9903 13.9903 10.8602 13.9903 6.99907C13.9903 3.13791 10.8602 0.0078125 6.99907 0.0078125C3.13791 0.0078125 0.0078125 3.13791 0.0078125 6.99907C0.0078125 10.8602 3.13791 13.9903 6.99907 13.9903Z" fill="white"/>
</mask>
<g mask="url(#mask10_962_22737)">
<mask id="mask11_962_22737" style="mask-type:luminance" maskUnits="userSpaceOnUse" x="1" y="0" width="13" height="9">
<path d="M1.11719 0.0078125V3.21267L4.24657 8.588L6.99859 3.82123H13.9898V0.0078125H1.11719Z" fill="white"/>
</mask>
<g mask="url(#mask11_962_22737)">
<path d="M0.0078125 13.9897H6.66302L9.75188 10.9008V8.58732H4.24706L0.0078125 1.31641V13.9897Z" fill="#0F9D58"/>
<path d="M0.0078125 13.9897H6.66302L9.75188 10.9008V8.58732H4.24706L0.0078125 1.31641V13.9897Z" fill="url(#paint6_linear_962_22737)"/>
</g>
</g>
<mask id="mask12_962_22737" style="mask-type:luminance" maskUnits="userSpaceOnUse" x="0" y="0" width="14" height="14">
<path d="M6.99907 13.9903C10.8602 13.9903 13.9903 10.8602 13.9903 6.99907C13.9903 3.13791 10.8602 0.0078125 6.99907 0.0078125C3.13791 0.0078125 0.0078125 3.13791 0.0078125 6.99907C0.0078125 10.8602 3.13791 13.9903 6.99907 13.9903Z" fill="white"/>
</mask>
<g mask="url(#mask12_962_22737)">
<path d="M1.11719 3.22266L5.66548 7.77015L4.24657 8.58924L1.11719 3.22266Z" fill="url(#paint7_radial_962_22737)"/>
</g>
<mask id="mask13_962_22737" style="mask-type:luminance" maskUnits="userSpaceOnUse" x="0" y="0" width="14" height="14">
<path d="M6.99907 13.9903C10.8602 13.9903 13.9903 10.8602 13.9903 6.99907C13.9903 3.13791 10.8602 0.0078125 6.99907 0.0078125C3.13791 0.0078125 0.0078125 3.13791 0.0078125 6.99907C0.0078125 10.8602 3.13791 13.9903 6.99907 13.9903Z" fill="white"/>
</mask>
<g mask="url(#mask13_962_22737)">
<path d="M6.66797 13.9822L8.33316 7.76953L9.75207 8.58862L6.66797 13.9822Z" fill="url(#paint8_radial_962_22737)"/>
</g>
<mask id="mask14_962_22737" style="mask-type:luminance" maskUnits="userSpaceOnUse" x="0" y="0" width="14" height="14">
<path d="M6.99907 13.9903C10.8602 13.9903 13.9903 10.8602 13.9903 6.99907C13.9903 3.13791 10.8602 0.0078125 6.99907 0.0078125C3.13791 0.0078125 0.0078125 3.13791 0.0078125 6.99907C0.0078125 10.8602 3.13791 13.9903 6.99907 13.9903Z" fill="white"/>
</mask>
<g mask="url(#mask14_962_22737)">
<path d="M6.99816 10.176C8.75323 10.176 10.176 8.75323 10.176 6.99816C10.176 5.24308 8.75323 3.82031 6.99816 3.82031C5.24308 3.82031 3.82031 5.24308 3.82031 6.99816C3.82031 8.75323 5.24308 10.176 6.99816 10.176Z" fill="#F1F1F1"/>
<path d="M6.99931 9.54158C8.40337 9.54158 9.54158 8.40337 9.54158 6.99931C9.54158 5.59525 8.40337 4.45703 6.99931 4.45703C5.59525 4.45703 4.45703 5.59525 4.45703 6.99931C4.45703 8.40337 5.59525 9.54158 6.99931 9.54158Z" fill="#4285F4"/>
</g>
<mask id="mask15_962_22737" style="mask-type:luminance" maskUnits="userSpaceOnUse" x="0" y="0" width="14" height="14">
<path d="M6.99907 13.9903C10.8602 13.9903 13.9903 10.8602 13.9903 6.99907C13.9903 3.13791 10.8602 0.0078125 6.99907 0.0078125C3.13791 0.0078125 0.0078125 3.13791 0.0078125 6.99907C0.0078125 10.8602 3.13791 13.9903 6.99907 13.9903Z" fill="white"/>
</mask>
<g mask="url(#mask15_962_22737)">
<path d="M6.99816 3.74219C5.24319 3.74219 3.82031 5.16507 3.82031 6.92003V6.99948C3.82031 5.24451 5.24319 3.82163 6.99816 3.82163H13.9894V3.74219H6.99816Z" fill="#3E2723" fill-opacity="0.2"/>
<path d="M9.74791 8.58732C9.19814 9.5359 8.17408 10.1762 6.99907 10.1762C5.82327 10.1762 4.79921 9.5359 4.24944 8.58732H4.24626L0.0078125 1.31641V1.39585L4.24706 8.66676H4.25024C4.8 9.61535 5.82406 10.2557 6.99987 10.2557C8.17488 10.2557 9.19894 9.61615 9.7487 8.66676H9.75268V8.58732H9.74791Z" fill="white" fill-opacity="0.1"/>
<path opacity="0.1" d="M7.07879 3.82031C7.06528 3.82031 7.05257 3.8219 7.03906 3.8227C8.77576 3.84415 10.1772 5.2567 10.1772 6.99816C10.1772 8.73962 8.77576 10.1522 7.03906 10.1736C7.05257 10.1736 7.06528 10.176 7.07879 10.176C8.83375 10.176 10.2566 8.75312 10.2566 6.99816C10.2566 5.24319 8.83375 3.82031 7.07879 3.82031Z" fill="#3E2723"/>
<path d="M9.78074 8.69469C10.0509 8.22754 10.2074 7.68731 10.2074 7.10894C10.2074 6.77368 10.1549 6.45113 10.0588 6.14844C10.1343 6.42014 10.178 6.70536 10.178 7.00089C10.178 7.57926 10.0215 8.1195 9.75134 8.58664L9.75293 8.58982L6.66406 13.9922H6.75622L9.78232 8.69786L9.78074 8.69469Z" fill="white" fill-opacity="0.2"/>
</g>
<mask id="mask16_962_22737" style="mask-type:luminance" maskUnits="userSpaceOnUse" x="0" y="0" width="14" height="14">
<path d="M6.99907 13.9903C10.8602 13.9903 13.9903 10.8602 13.9903 6.99907C13.9903 3.13791 10.8602 0.0078125 6.99907 0.0078125C3.13791 0.0078125 0.0078125 3.13791 0.0078125 6.99907C0.0078125 10.8602 3.13791 13.9903 6.99907 13.9903Z" fill="white"/>
</mask>
<g mask="url(#mask16_962_22737)">
<path d="M6.99907 0.0872587C10.8467 0.0872587 13.9681 3.19599 13.9895 7.0388C13.9895 7.02529 13.9903 7.01258 13.9903 6.99907C13.9903 3.13799 10.8602 0.0078125 6.99907 0.0078125C3.13799 0.0078125 0.0078125 3.13799 0.0078125 6.99907C0.0078125 7.01258 0.00860698 7.02529 0.00860698 7.0388C0.0300574 3.19599 3.1515 0.0872587 6.99907 0.0872587Z" fill="white" fill-opacity="0.2"/>
<path d="M6.99907 13.9125C10.8467 13.9125 13.9681 10.8037 13.9895 6.96094C13.9895 6.97444 13.9903 6.98715 13.9903 7.00066C13.9903 10.8617 10.8602 13.9919 6.99907 13.9919C3.13799 13.9919 0.0078125 10.8617 0.0078125 7.00066C0.0078125 6.98715 0.00860698 6.97444 0.00860698 6.96094C0.0300574 10.8037 3.1515 13.9125 6.99907 13.9125Z" fill="#3E2723" fill-opacity="0.15"/>
</g>
<path d="M6.99907 13.9903C10.8602 13.9903 13.9903 10.8602 13.9903 6.99907C13.9903 3.13791 10.8602 0.0078125 6.99907 0.0078125C3.13791 0.0078125 0.0078125 3.13791 0.0078125 6.99907C0.0078125 10.8602 3.13791 13.9903 6.99907 13.9903Z" fill="url(#paint9_radial_962_22737)"/>
</g>
<defs>
<linearGradient id="paint0_linear_962_22737" x1="1.70247" y1="5.33237" x2="5.87339" y2="2.896" gradientUnits="userSpaceOnUse">
<stop stop-color="#A52714" stop-opacity="0.6"/>
<stop offset="0.66" stop-color="#A52714" stop-opacity="0"/>
</linearGradient>
<linearGradient id="paint1_linear_962_22737" x1="8.18044" y1="12.4405" x2="3.54618" y2="9.72578" gradientUnits="userSpaceOnUse">
<stop stop-color="#055524" stop-opacity="0.4"/>
<stop offset="0.33" stop-color="#055524" stop-opacity="0"/>
</linearGradient>
<linearGradient id="paint2_linear_962_22737" x1="9.0546" y1="3.32806" x2="10.2217" y2="8.43852" gradientUnits="userSpaceOnUse">
<stop stop-color="#EA6100" stop-opacity="0.3"/>
<stop offset="0.66" stop-color="#EA6100" stop-opacity="0"/>
</linearGradient>
<linearGradient id="paint3_linear_962_22737" x1="9.0546" y1="3.32806" x2="10.2217" y2="8.43852" gradientUnits="userSpaceOnUse">
<stop stop-color="#EA6100" stop-opacity="0.3"/>
<stop offset="0.66" stop-color="#EA6100" stop-opacity="0"/>
</linearGradient>
<linearGradient id="paint4_linear_962_22737" x1="1.70247" y1="5.33237" x2="5.87339" y2="2.896" gradientUnits="userSpaceOnUse">
<stop stop-color="#A52714" stop-opacity="0.6"/>
<stop offset="0.66" stop-color="#A52714" stop-opacity="0"/>
</linearGradient>
<radialGradient id="paint5_radial_962_22737" cx="0" cy="0" r="1" gradientUnits="userSpaceOnUse" gradientTransform="translate(6.69652 3.81618) scale(6.67967)">
<stop stop-color="#3E2723" stop-opacity="0.2"/>
<stop offset="1" stop-color="#3E2723" stop-opacity="0"/>
</radialGradient>
<linearGradient id="paint6_linear_962_22737" x1="8.18044" y1="12.4405" x2="3.54618" y2="9.72578" gradientUnits="userSpaceOnUse">
<stop stop-color="#055524" stop-opacity="0.4"/>
<stop offset="0.33" stop-color="#055524" stop-opacity="0"/>
</linearGradient>
<radialGradient id="paint7_radial_962_22737" cx="0" cy="0" r="1" gradientUnits="userSpaceOnUse" gradientTransform="translate(1.11004 3.22822) scale(6.20029)">
<stop stop-color="#3E2723" stop-opacity="0.2"/>
<stop offset="1" stop-color="#3E2723" stop-opacity="0"/>
</radialGradient>
<radialGradient id="paint8_radial_962_22737" cx="0" cy="0" r="1" gradientUnits="userSpaceOnUse" gradientTransform="translate(6.98655 7.01066) scale(6.98093 6.98093)">
<stop stop-color="#263238" stop-opacity="0.2"/>
<stop offset="1" stop-color="#263238" stop-opacity="0"/>
</radialGradient>
<radialGradient id="paint9_radial_962_22737" cx="0" cy="0" r="1" gradientUnits="userSpaceOnUse" gradientTransform="translate(2.09613 1.91563) scale(14.0421)">
<stop stop-color="white" stop-opacity="0.1"/>
<stop offset="1" stop-color="white" stop-opacity="0"/>
</radialGradient>
<clipPath id="clip0_962_22737">
<rect width="14" height="14" fill="white"/>
</clipPath>
</defs>
</svg>
