<svg width="13" height="14" viewBox="0 0 13 14" fill="none" xmlns="http://www.w3.org/2000/svg">
<path d="M5.88533 7.44801L8.18933 9.75201L9.08533 8.85601L6.97333 6.72801V3.32001H5.69333V7.00001C5.69333 7.17601 5.77333 7.33601 5.88533 7.44801ZM0.0933266 7.00001C0.0933266 10.488 2.84533 13.24 6.33333 13.24C9.83733 13.24 12.5733 10.392 12.5733 7.00001C12.5733 3.51201 9.82133 0.76001 6.33333 0.76001C2.84533 0.76001 0.0933266 3.51201 0.0933266 7.00001ZM1.37333 7.00001C1.37333 4.21601 3.54933 2.04001 6.33333 2.04001C9.11733 2.04001 11.2933 4.21601 11.2933 7.00001C11.2933 9.70401 9.11733 11.96 6.33333 11.96C3.54933 11.96 1.37333 9.78401 1.37333 7.00001Z" fill="black" fill-opacity="0.7"/>
</svg>
