<svg width="15" height="12" viewBox="0 0 15 12" fill="none" xmlns="http://www.w3.org/2000/svg">
<path d="M7.66659 4.04744C6.58823 4.04745 5.71405 4.92163 5.71405 5.99998H4.44738C4.44738 4.22207 5.88867 2.78078 7.66658 2.78078L7.66659 4.04744Z" fill="#101115" fill-opacity="0.5"/>
<path fill-rule="evenodd" clip-rule="evenodd" d="M10.5561 1.34061C9.71716 0.819272 8.72709 0.518188 7.66669 0.518188C4.63915 0.518188 2.18485 2.97249 2.18485 6.00003C2.18485 6.05541 2.18567 6.1106 2.1873 6.16559C1.54584 6.80182 1.03593 7.4406 0.722174 8.04066C0.389112 8.67764 0.193343 9.44258 0.573087 10.099C0.582739 10.1157 0.593036 10.1318 0.603927 10.1472C0.922641 10.6522 1.48081 10.8777 2.03515 10.958C2.61702 11.0423 3.31172 10.9877 4.05602 10.8353C4.28944 10.7876 4.5313 10.7295 4.7803 10.6613C5.61859 11.1815 6.60756 11.4819 7.66669 11.4819C10.6942 11.4819 13.1485 9.02756 13.1485 6.00003C13.1485 5.94369 13.1477 5.88755 13.146 5.83162C13.3297 5.64985 13.5012 5.46926 13.6594 5.29081C14.1635 4.72238 14.5582 4.14807 14.7761 3.60202C14.9841 3.0809 15.0678 2.48357 14.7881 1.95439C14.7795 1.93568 14.7699 1.91722 14.7593 1.89906C14.3792 1.2475 13.6205 1.03647 12.9039 1.00734C12.2294 0.97992 11.4243 1.10221 10.5561 1.34061ZM7.66669 1.78486C5.33872 1.78486 3.45152 3.67205 3.45152 6.00003C3.45152 6.11486 3.45611 6.22862 3.46512 6.34113C3.46696 6.35626 3.46826 6.37143 3.46901 6.38663C3.57468 7.54879 4.15208 8.57468 5.00815 9.27126C6.09978 8.91759 7.34133 8.36551 8.60958 7.63328C9.8781 6.90091 10.9772 6.10155 11.8294 5.33286C11.6487 4.19696 11.0143 3.21226 10.1178 2.57038C10.0951 2.55651 10.0733 2.54121 10.0525 2.52457C9.37413 2.05797 8.5523 1.78486 7.66669 1.78486ZM11.7679 2.36254C12.2543 2.91056 12.6326 3.55675 12.8692 4.26766C13.2329 3.83261 13.474 3.44748 13.5997 3.13246C13.7461 2.76557 13.6988 2.59884 13.6635 2.53769L13.6649 2.53684C13.6203 2.46093 13.4392 2.29681 12.8524 2.27296C12.5488 2.26062 12.1841 2.28954 11.7679 2.36254ZM1.66851 9.46297L1.66973 9.46227C1.70504 9.52343 1.82575 9.64781 2.21671 9.70443C2.55275 9.7531 3.00744 9.73679 3.56686 9.63907C3.07955 9.09046 2.70069 8.44336 2.46388 7.73139C2.19282 8.0562 1.98559 8.35804 1.84466 8.62758C1.57367 9.14583 1.62423 9.38425 1.66851 9.46297ZM7.66669 10.2152C9.63214 10.2152 11.2834 8.87001 11.75 7.05008C11.0074 7.62961 10.1617 8.19981 9.24292 8.73025C8.32417 9.26069 7.40754 9.70798 6.53434 10.0614C6.89466 10.1616 7.27442 10.2152 7.66669 10.2152Z" fill="#101115" fill-opacity="0.7"/>
</svg>
