<svg width="24" height="24" viewBox="0 0 24 24" fill="none" xmlns="http://www.w3.org/2000/svg">
<path d="M21.0039 15.6705V18.8919" stroke="#4876CE" stroke-width="1.5" stroke-linecap="round" stroke-linejoin="round"/>
<path d="M21.003 7.275V10.4963H21.004C20.5373 10.4022 20.0539 10.4336 19.6034 10.5874C18.766 10.8737 18.1307 11.5647 17.9157 12.4231C17.7135 13.2142 17.8879 14.0544 18.3884 14.6996C18.8888 15.3447 19.6592 15.7227 20.4757 15.7235C20.6531 15.7232 20.8301 15.7055 21.004 15.6705V18.8918C21.004 19.452 20.7815 19.9891 20.3855 20.3852C19.9894 20.7813 19.4522 21.0038 18.8921 21.0037H15.6707V21.0047C15.7649 20.538 15.7335 20.0547 15.5797 19.6041C15.2934 18.7668 14.6024 18.1315 13.7439 17.9164C12.9528 17.7142 12.1127 17.8887 11.4675 18.3891C10.8223 18.8896 10.4444 19.66 10.4436 20.4765C10.4439 20.6539 10.4616 20.8308 10.4966 21.0047L7.27624 21.0037C6.11019 21.0039 5.16471 20.0589 5.16436 18.8928V15.6715C4.99046 15.7065 4.81353 15.7242 4.63614 15.7245C3.81961 15.7237 3.04924 15.3458 2.54878 14.7006C2.04832 14.0554 1.87386 13.2152 2.07608 12.4241C2.29111 11.5657 2.92641 10.8747 3.76378 10.5884C4.21435 10.4346 4.69768 10.4032 5.16436 10.4973H5.16336V7.276C5.16332 6.71588 5.38581 6.17869 5.78187 5.78263C6.17794 5.38657 6.71513 5.16408 7.27524 5.16412H10.4966C10.4616 4.99021 10.4439 4.81329 10.4436 4.6359C10.4444 3.81937 10.8223 3.049 11.4675 2.54854C12.1127 2.04808 12.9528 1.87362 13.7439 2.07583C14.602 2.29148 15.2928 2.92655 15.5797 3.76354C15.7335 4.2141 15.7649 4.69743 15.6707 5.16412H18.8921C19.4522 5.16408 19.9894 5.38657 20.3855 5.78263C20.7815 6.17869 21.004 6.71588 21.004 7.276" stroke="#4876CE" stroke-width="1.5" stroke-linecap="round" stroke-linejoin="round"/>
</svg>
