<svg width="25" height="24" viewBox="0 0 25 24" fill="none" xmlns="http://www.w3.org/2000/svg">
<path d="M13.984 10.008H20.872V3.12H13.984V10.008ZM3.28003 13.224H22V11.424H3.28003V13.224ZM4.40803 20.88H11.296V14.664H9.68803V19.272H6.01603V14.664H4.40803V20.88ZM4.40803 10.008H11.296V3.12H4.40803V10.008ZM6.01603 8.4V4.728H9.68803V8.4H6.01603ZM7.09603 18.216H8.63203V16.656H7.09603V18.216ZM7.09603 7.344H8.63203V5.784H7.09603V7.344ZM13.984 20.88H15.544V19.32H13.984V20.88ZM13.984 16.224H17.104V14.664H13.984V16.224ZM15.544 19.32H18.664V20.88H20.872V17.76H18.664V16.224H17.104V17.76H15.544V19.32ZM15.592 8.4V4.728H19.264V8.4H15.592ZM16.648 7.344H18.184V5.784H16.648V7.344Z" fill="black"/>
</svg>
