<svg width="24" height="24" viewBox="0 0 24 24" fill="none" xmlns="http://www.w3.org/2000/svg">
<path fill-rule="evenodd" clip-rule="evenodd" d="M10 10.447H14C14.55 10.447 15 10.897 15 11.447V14.5C15 15.052 14.552 15.5 14 15.5H10C9.448 15.5 9 15.052 9 14.5V11.447C9 10.895 9.448 10.447 10 10.447Z" stroke="#4876CE" stroke-width="1.5" stroke-linecap="round" stroke-linejoin="round"/>
<path d="M10.3159 10.447V9.184C10.3159 8.254 11.0699 7.5 11.9999 7.5C12.9299 7.5 13.6839 8.254 13.6839 9.184V10.445" stroke="#4876CE" stroke-width="1.5" stroke-linecap="round" stroke-linejoin="round"/>
<path fill-rule="evenodd" clip-rule="evenodd" d="M5.973 5.06699L11.315 3.12099C11.757 2.95999 12.242 2.95999 12.684 3.12099L18.026 5.06699C19.212 5.49899 20 6.62499 20 7.88599V12.758C20 16.339 18.172 17.808 12.995 20.739C12.378 21.088 11.622 21.088 11.005 20.739C5.828 17.808 4 16.339 4 12.758V7.88599C4 6.62499 4.788 5.49899 5.973 5.06699Z" stroke="#4876CE" stroke-width="1.5" stroke-linecap="round" stroke-linejoin="round"/>
</svg>
