<svg width="24" height="24" viewBox="0 0 24 24" fill="none" xmlns="http://www.w3.org/2000/svg">
<path d="M21 9.5V6.5C21 5.11929 19.8807 4 18.5 4H5.5C4.11929 4 3 5.11929 3 6.5V10" stroke="#4876CE" stroke-width="1.5" stroke-linecap="round" stroke-linejoin="round"/>
<path d="M21 14.5V17.5C21 18.8807 19.8807 20 18.5 20H13" stroke="#4876CE" stroke-width="1.5" stroke-linecap="round" stroke-linejoin="round"/>
<path fill-rule="evenodd" clip-rule="evenodd" d="M19.5 9.5H21C21.5523 9.5 22 9.94772 22 10.5V13.5C22 14.0523 21.5523 14.5 21 14.5H19.5C18.1193 14.5 17 13.3807 17 12V12C17 10.6193 18.1193 9.5 19.5 9.5V9.5Z" stroke="#4876CE" stroke-width="1.5" stroke-linecap="round" stroke-linejoin="round"/>
<circle cx="6.5" cy="16.5" r="4.5" stroke="#4876CE" stroke-width="1.5" stroke-linecap="round" stroke-linejoin="round"/>
<path d="M5.25 16.25L6.25 17.25L7.75 15.75" stroke="#4876CE" stroke-width="1.5" stroke-linecap="round" stroke-linejoin="round"/>
</svg>
